<?xml version="1.0" encoding="UTF-8"?>
<svg width="32" height="32" viewBox="0 0 32 32" fill="none" xmlns="http://www.w3.org/2000/svg">
  <rect width="32" height="32" rx="4" fill="#FF69B4"/>
  <path d="M20.5 11.2C20.5 13.4 19.1 14.5 17.7 15.2C19.3 15.8 20.3 17 20.3 18.9C20.3 21.4 18.2 23 15.2 23C12.7 23 10.9 21.9 10.5 19.7L13 19.2C13.2 20.4 14 21.1 15.2 21.1C16.4 21.1 17.3 20.3 17.3 19.1C17.3 17.8 16.3 17.1 14.7 17.1H13.8V15.2H14.7C16.1 15.2 17.1 14.5 17.1 13.3C17.1 12.2 16.3 11.5 15.2 11.5C14.1 11.5 13.3 12.2 13.1 13.3L10.7 12.8C11.1 10.7 12.8 9.6 15.2 9.6C18 9.6 20.5 10.9 20.5 11.2Z" fill="white"/>
</svg> 